<?xml version="1.0" standalone="no"?><!DOCTYPE svg PUBLIC "-//W3C//DTD SVG 1.1//EN" "http://www.w3.org/Graphics/SVG/1.1/DTD/svg11.dtd"><svg xmlns:xlink="http://www.w3.org/1999/xlink" version="1.1" class="highcharts-root" style="font-family:&quot;Lucida Grande&quot;, &quot;Lucida Sans Unicode&quot;, Arial, Helvetica, sans-serif;font-size:12px;" xmlns="http://www.w3.org/2000/svg" width="600" height="400" viewBox="0 0 600 400"><desc>Created with Highcharts 8.2.2</desc><defs><clipPath id="highcharts-cxdq64l-120-"><rect x="0" y="0" width="519" height="334" fill="none"></rect></clipPath></defs><rect fill="#ffffff" class="highcharts-background" x="0" y="0" width="600" height="400" rx="0" ry="0"></rect><rect fill="none" class="highcharts-plot-background" x="71" y="10" width="519" height="334"></rect><g class="highcharts-pane-group" data-z-index="0"></g><g class="highcharts-grid highcharts-xaxis-grid" data-z-index="1"><path fill="none" data-z-index="1" class="highcharts-grid-line" d="M 136.5 10 L 136.5 344" opacity="1"></path><path fill="none" data-z-index="1" class="highcharts-grid-line" d="M 222.5 10 L 222.5 344" opacity="1"></path><path fill="none" data-z-index="1" class="highcharts-grid-line" d="M 308.5 10 L 308.5 344" opacity="1"></path><path fill="none" data-z-index="1" class="highcharts-grid-line" d="M 394.5 10 L 394.5 344" opacity="1"></path><path fill="none" data-z-index="1" class="highcharts-grid-line" d="M 480.5 10 L 480.5 344" opacity="1"></path><path fill="none" data-z-index="1" class="highcharts-grid-line" d="M 565.5 10 L 565.5 344" opacity="1"></path></g><g class="highcharts-grid highcharts-yaxis-grid" data-z-index="1"><path fill="none" stroke="#e6e6e6" stroke-width="1" data-z-index="1" class="highcharts-grid-line" d="M 71 344.5 L 590 344.5" opacity="1"></path><path fill="none" stroke="#e6e6e6" stroke-width="1" data-z-index="1" class="highcharts-grid-line" d="M 71 296.5 L 590 296.5" opacity="1"></path><path fill="none" stroke="#e6e6e6" stroke-width="1" data-z-index="1" class="highcharts-grid-line" d="M 71 249.5 L 590 249.5" opacity="1"></path><path fill="none" stroke="#e6e6e6" stroke-width="1" data-z-index="1" class="highcharts-grid-line" d="M 71 201.5 L 590 201.5" opacity="1"></path><path fill="none" stroke="#e6e6e6" stroke-width="1" data-z-index="1" class="highcharts-grid-line" d="M 71 153.5 L 590 153.5" opacity="1"></path><path fill="none" stroke="#e6e6e6" stroke-width="1" data-z-index="1" class="highcharts-grid-line" d="M 71 105.5 L 590 105.5" opacity="1"></path><path fill="none" stroke="#e6e6e6" stroke-width="1" data-z-index="1" class="highcharts-grid-line" d="M 71 58.5 L 590 58.5" opacity="1"></path><path fill="none" stroke="#e6e6e6" stroke-width="1" data-z-index="1" class="highcharts-grid-line" d="M 71 9.5 L 590 9.5" opacity="1"></path></g><rect fill="none" class="highcharts-plot-border" data-z-index="1" x="71" y="10" width="519" height="334"></rect><g class="highcharts-axis highcharts-xaxis" data-z-index="2"><path fill="none" class="highcharts-tick" stroke="#ccd6eb" stroke-width="1" d="M 136.5 344 L 136.5 354" opacity="1"></path><path fill="none" class="highcharts-tick" stroke="#ccd6eb" stroke-width="1" d="M 222.5 344 L 222.5 354" opacity="1"></path><path fill="none" class="highcharts-tick" stroke="#ccd6eb" stroke-width="1" d="M 308.5 344 L 308.5 354" opacity="1"></path><path fill="none" class="highcharts-tick" stroke="#ccd6eb" stroke-width="1" d="M 394.5 344 L 394.5 354" opacity="1"></path><path fill="none" class="highcharts-tick" stroke="#ccd6eb" stroke-width="1" d="M 480.5 344 L 480.5 354" opacity="1"></path><path fill="none" class="highcharts-tick" stroke="#ccd6eb" stroke-width="1" d="M 565.5 344 L 565.5 354" opacity="1"></path><text x="330.5" data-z-index="7" text-anchor="middle" transform="translate(0,0)" class="highcharts-axis-title" style="color:#666666;fill:#666666;" y="383"><tspan>RSS-1</tspan></text><path fill="none" class="highcharts-axis-line" stroke="#ccd6eb" stroke-width="1" data-z-index="7" d="M 71 344.5 L 590 344.5"></path></g><g class="highcharts-axis highcharts-yaxis" data-z-index="2"><text x="26.15625" data-z-index="7" text-anchor="middle" transform="translate(0,0) rotate(270 26.15625 177)" class="highcharts-axis-title" style="color:#666666;fill:#666666;" y="177"><tspan>RSS-2</tspan></text><path fill="none" class="highcharts-axis-line" data-z-index="7" d="M 71 10 L 71 344"></path></g><g class="highcharts-series-group" data-z-index="3"><g class="highcharts-series highcharts-series-0 highcharts-bubble-series highcharts-color-0" data-z-index="0.1" opacity="1" transform="translate(71,10) scale(1 1)" clip-path="url(#highcharts-cxdq64l-120-)"><path fill="rgb(67,67,72)" fill-opacity="0.5" d="M -3223 -2826.0770566723622 A 24 24 0 1 1 -3222.976000004 -2826.0770686723613 Z" stroke="#434348" stroke-width="1" opacity="1" class="highcharts-point highcharts-color-0" visibility="hidden"></path><path fill="rgb(124,181,236)" fill-opacity="0.5" d="M 421 186.75512036586417 A 24 24 0 1 1 421.02399999600004 186.75510836586517 Z" stroke="#7cb5ec" stroke-width="1" opacity="1" class="highcharts-point highcharts-color-0"></path><path fill="rgb(124,181,236)" fill-opacity="0.5" d="M 282 145.7170016065404 A 24 24 0 1 1 282.02399999600004 145.7169896065414 Z" stroke="#7cb5ec" stroke-width="1" opacity="1" class="highcharts-point highcharts-color-0"></path><path fill="rgb(124,181,236)" fill-opacity="0.5" d="M 387 300.2352703005636 A 24 24 0 1 1 387.02399999600004 300.2352583005646 Z" stroke="#7cb5ec" stroke-width="1" opacity="1" class="highcharts-point highcharts-color-0"></path><path fill="rgb(124,181,236)" fill-opacity="0.5" d="M 334 350.18653601948336 A 24 24 0 1 1 334.02399999600004 350.18652401948435 Z" stroke="#7cb5ec" stroke-width="1" opacity="1" class="highcharts-point highcharts-color-0"></path><path fill="rgb(124,181,236)" fill-opacity="0.5" d="M 204 159.99814387716296 A 24 24 0 1 1 204.02399999600001 159.99813187716396 Z" stroke="#7cb5ec" stroke-width="1" opacity="1" class="highcharts-point highcharts-color-0"></path><path fill="rgb(124,181,236)" fill-opacity="0.5" d="M 458 297.0049104962645 A 24 24 0 1 1 458.02399999600004 297.00489849626547 Z" stroke="#7cb5ec" stroke-width="1" opacity="1" class="highcharts-point highcharts-color-0"></path><path fill="rgb(124,181,236)" fill-opacity="0.5" d="M 287 150.52470919424437 A 24 24 0 1 1 287.02399999600004 150.52469719424536 Z" stroke="#7cb5ec" stroke-width="1" opacity="1" class="highcharts-point highcharts-color-0"></path><path fill="rgb(67,67,72)" fill-opacity="0.5" d="M -3169 -2821.7225751019614 A 24 24 0 1 1 -3168.976000004 -2821.7225871019605 Z" stroke="#434348" stroke-width="1" opacity="1" class="highcharts-point highcharts-color-0" visibility="hidden"></path><path fill="rgb(67,67,72)" fill-opacity="0.5" d="M -3224 -2787.806368321077 A 24 24 0 1 1 -3223.976000004 -2787.806380321076 Z" stroke="#434348" stroke-width="1" opacity="1" class="highcharts-point highcharts-color-0" visibility="hidden"></path><path fill="rgb(67,67,72)" fill-opacity="0.5" d="M -3234 -2803.644318694144 A 24 24 0 1 1 -3233.976000004 -2803.6443306941433 Z" stroke="#434348" stroke-width="1" opacity="1" class="highcharts-point highcharts-color-0" visibility="hidden"></path><path fill="rgb(67,67,72)" fill-opacity="0.5" d="M -3182 -2783.2790726093863 A 24 24 0 1 1 -3181.976000004 -2783.2790846093853 Z" stroke="#434348" stroke-width="1" opacity="1" class="highcharts-point highcharts-color-0" visibility="hidden"></path><path fill="rgb(67,67,72)" fill-opacity="0.5" d="M -3171 -2783.562546047912 A 24 24 0 1 1 -3170.976000004 -2783.562558047911 Z" stroke="#434348" stroke-width="1" opacity="1" class="highcharts-point highcharts-color-0" visibility="hidden"></path><path fill="rgb(67,67,72)" fill-opacity="0.5" d="M -3172 -2822.76914464914 A 24 24 0 1 1 -3171.976000004 -2822.769156649139 Z" stroke="#434348" stroke-width="1" opacity="1" class="highcharts-point highcharts-color-0" visibility="hidden"></path><path fill="rgb(67,67,72)" fill-opacity="0.5" d="M -3189 -2815.7540380040145 A 24 24 0 1 1 -3188.976000004 -2815.7540500040136 Z" stroke="#434348" stroke-width="1" opacity="1" class="highcharts-point highcharts-color-0" visibility="hidden"></path><path fill="rgb(67,67,72)" fill-opacity="0.5" d="M -3192 -2803.0066783082057 A 24 24 0 1 1 -3191.976000004 -2803.0066903082047 Z" stroke="#434348" stroke-width="1" opacity="1" class="highcharts-point highcharts-color-0" visibility="hidden"></path><path fill="rgb(67,67,72)" fill-opacity="0.5" d="M -3196 -2804.6864504938467 A 24 24 0 1 1 -3195.976000004 -2804.6864624938457 Z" stroke="#434348" stroke-width="1" opacity="1" class="highcharts-point highcharts-color-0" visibility="hidden"></path><path fill="rgb(67,67,72)" fill-opacity="0.5" d="M -3198 -2800.6754036977436 A 24 24 0 1 1 -3197.976000004 -2800.6754156977427 Z" stroke="#434348" stroke-width="1" opacity="1" class="highcharts-point highcharts-color-0" visibility="hidden"></path><path fill="rgb(67,67,72)" fill-opacity="0.5" d="M -3209 -2842.1592744756576 A 24 24 0 1 1 -3208.976000004 -2842.1592864756567 Z" stroke="#434348" stroke-width="1" opacity="1" class="highcharts-point highcharts-color-0" visibility="hidden"></path><path fill="rgb(67,67,72)" fill-opacity="0.5" d="M -3227 -2793.178563862912 A 24 24 0 1 1 -3226.976000004 -2793.178575862911 Z" stroke="#434348" stroke-width="1" opacity="1" class="highcharts-point highcharts-color-0" visibility="hidden"></path><path fill="rgb(67,67,72)" fill-opacity="0.5" d="M -3220 -2798.678888301185 A 24 24 0 1 1 -3219.976000004 -2798.678900301184 Z" stroke="#434348" stroke-width="1" opacity="1" class="highcharts-point highcharts-color-0" visibility="hidden"></path><path fill="rgb(67,67,72)" fill-opacity="0.5" d="M -3199 -2803.68126468104 A 24 24 0 1 1 -3198.976000004 -2803.681276681039 Z" stroke="#434348" stroke-width="1" opacity="1" class="highcharts-point highcharts-color-0" visibility="hidden"></path><path fill="rgb(67,67,72)" fill-opacity="0.5" d="M -3182 -2834.7467446662276 A 24 24 0 1 1 -3181.976000004 -2834.7467566662267 Z" stroke="#434348" stroke-width="1" opacity="1" class="highcharts-point highcharts-color-0" visibility="hidden"></path><path fill="rgb(67,67,72)" fill-opacity="0.5" d="M -3200 -2834.0044290706633 A 24 24 0 1 1 -3199.976000004 -2834.0044410706623 Z" stroke="#434348" stroke-width="1" opacity="1" class="highcharts-point highcharts-color-0" visibility="hidden"></path><path fill="rgb(67,67,72)" fill-opacity="0.5" d="M -3188 -2823.6151103013076 A 24 24 0 1 1 -3187.976000004 -2823.6151223013067 Z" stroke="#434348" stroke-width="1" opacity="1" class="highcharts-point highcharts-color-0" visibility="hidden"></path><path fill="rgb(67,67,72)" fill-opacity="0.5" d="M -3184 -2783.580360499305 A 24 24 0 1 1 -3183.976000004 -2783.580372499304 Z" stroke="#434348" stroke-width="1" opacity="1" class="highcharts-point highcharts-color-0" visibility="hidden"></path><path fill="rgb(67,67,72)" fill-opacity="0.5" d="M -3190 -2793.1717942726323 A 24 24 0 1 1 -3189.976000004 -2793.1718062726313 Z" stroke="#434348" stroke-width="1" opacity="1" class="highcharts-point highcharts-color-0" visibility="hidden"></path><path fill="rgb(67,67,72)" fill-opacity="0.5" d="M -3229 -2810.6862701210266 A 24 24 0 1 1 -3228.976000004 -2810.6862821210257 Z" stroke="#434348" stroke-width="1" opacity="1" class="highcharts-point highcharts-color-0" visibility="hidden"></path><path fill="rgb(67,67,72)" fill-opacity="0.5" d="M -3223 -2791.631309736528 A 24 24 0 1 1 -3222.976000004 -2791.631321736527 Z" stroke="#434348" stroke-width="1" opacity="1" class="highcharts-point highcharts-color-0" visibility="hidden"></path><path fill="rgb(67,67,72)" fill-opacity="0.5" d="M -3174 -2820.228723826299 A 24 24 0 1 1 -3173.976000004 -2820.228735826298 Z" stroke="#434348" stroke-width="1" opacity="1" class="highcharts-point highcharts-color-0" visibility="hidden"></path><path fill="rgb(67,67,72)" fill-opacity="0.5" d="M -3172 -2806.768561016607 A 24 24 0 1 1 -3171.976000004 -2806.768573016606 Z" stroke="#434348" stroke-width="1" opacity="1" class="highcharts-point highcharts-color-0" visibility="hidden"></path><path fill="rgb(67,67,72)" fill-opacity="0.5" d="M -3207 -2811.3181410649513 A 24 24 0 1 1 -3206.976000004 -2811.3181530649504 Z" stroke="#434348" stroke-width="1" opacity="1" class="highcharts-point highcharts-color-0" visibility="hidden"></path><path fill="rgb(67,67,72)" fill-opacity="0.5" d="M -3195 -2785.13364727894 A 24 24 0 1 1 -3194.976000004 -2785.133659278939 Z" stroke="#434348" stroke-width="1" opacity="1" class="highcharts-point highcharts-color-0" visibility="hidden"></path><path fill="rgb(67,67,72)" fill-opacity="0.5" d="M -3170 -2786.2880004801605 A 24 24 0 1 1 -3169.976000004 -2786.2880124801595 Z" stroke="#434348" stroke-width="1" opacity="1" class="highcharts-point highcharts-color-0" visibility="hidden"></path><path fill="rgb(67,67,72)" fill-opacity="0.5" d="M -3188 -2787.308225585905 A 24 24 0 1 1 -3187.976000004 -2787.308237585904 Z" stroke="#434348" stroke-width="1" opacity="1" class="highcharts-point highcharts-color-0" visibility="hidden"></path><path fill="rgb(67,67,72)" fill-opacity="0.5" d="M -3215 -2794.449862556447 A 24 24 0 1 1 -3214.976000004 -2794.449874556446 Z" stroke="#434348" stroke-width="1" opacity="1" class="highcharts-point highcharts-color-0" visibility="hidden"></path></g><g class="highcharts-markers highcharts-series-0 highcharts-bubble-series highcharts-color-0" data-z-index="0.1" opacity="1" transform="translate(71,10) scale(1 1)" clip-path="none"></g></g><text x="300" text-anchor="middle" class="highcharts-title" data-z-index="4" style="color:#333333;font-size:18px;fill:#333333;" y="24"></text><text x="300" text-anchor="middle" class="highcharts-subtitle" data-z-index="4" style="color:#666666;fill:#666666;" y="26"></text><text x="10" text-anchor="start" class="highcharts-caption" data-z-index="4" style="color:#666666;fill:#666666;" y="399"></text><g class="highcharts-legend" data-z-index="7"><rect fill="none" class="highcharts-legend-box" rx="0" ry="0" x="0" y="0" width="8" height="8" visibility="hidden"></rect><g data-z-index="1"><g></g></g></g><g class="highcharts-axis-labels highcharts-xaxis-labels" data-z-index="7"><text x="136.77182642921" style="color:#666666;cursor:default;font-size:11px;fill:#666666;" text-anchor="middle" transform="translate(0,0)" y="363" opacity="1">1.5</text><text x="222.70397414492" style="color:#666666;cursor:default;font-size:11px;fill:#666666;" text-anchor="middle" transform="translate(0,0)" y="363" opacity="1">1.55</text><text x="308.63612186062" style="color:#666666;cursor:default;font-size:11px;fill:#666666;" text-anchor="middle" transform="translate(0,0)" y="363" opacity="1">1.6</text><text x="394.56826957633" style="color:#666666;cursor:default;font-size:11px;fill:#666666;" text-anchor="middle" transform="translate(0,0)" y="363" opacity="1">1.65</text><text x="480.50041729204" style="color:#666666;cursor:default;font-size:11px;fill:#666666;" text-anchor="middle" transform="translate(0,0)" y="363" opacity="1">1.7</text><text x="566.43256500775" style="color:#666666;cursor:default;font-size:11px;fill:#666666;" text-anchor="middle" transform="translate(0,0)" y="363" opacity="1">1.75</text></g><g class="highcharts-axis-labels highcharts-yaxis-labels" data-z-index="7"><text x="56" style="color:#666666;cursor:default;font-size:11px;fill:#666666;" text-anchor="end" transform="translate(0,0)" y="349" opacity="1">-5.4</text><text x="56" style="color:#666666;cursor:default;font-size:11px;fill:#666666;" text-anchor="end" transform="translate(0,0)" y="301" opacity="1">-5.3</text><text x="56" style="color:#666666;cursor:default;font-size:11px;fill:#666666;" text-anchor="end" transform="translate(0,0)" y="254" opacity="1">-5.2</text><text x="56" style="color:#666666;cursor:default;font-size:11px;fill:#666666;" text-anchor="end" transform="translate(0,0)" y="206" opacity="1">-5.1</text><text x="56" style="color:#666666;cursor:default;font-size:11px;fill:#666666;" text-anchor="end" transform="translate(0,0)" y="158" opacity="1">-5</text><text x="56" style="color:#666666;cursor:default;font-size:11px;fill:#666666;" text-anchor="end" transform="translate(0,0)" y="110" opacity="1">-4.9</text><text x="56" style="color:#666666;cursor:default;font-size:11px;fill:#666666;" text-anchor="end" transform="translate(0,0)" y="63" opacity="1">-4.8</text><text x="56" style="color:#666666;cursor:default;font-size:11px;fill:#666666;" text-anchor="end" transform="translate(0,0)" y="15" opacity="1">-4.7</text></g></svg>